<?xml version="1.0" encoding="utf-8"?>
<!-- Generator: Adobe Illustrator 26.2.1, SVG Export Plug-In . SVG Version: 6.00 Build 0)  -->
<svg version="1.1" id="Laag_1" xmlns="http://www.w3.org/2000/svg" xmlns:xlink="http://www.w3.org/1999/xlink" x="0px" y="0px"
	 viewBox="0 0 512 512" style="enable-background:new 0 0 512 512;" xml:space="preserve">
<style type="text/css">
	.st0{fill:#AB1983;}
	.st1{fill:#FFFFFF;}
</style>
<path class="st0" d="M460.5,512H51.5C23,512,0,489,0,460.5V51.5C0,23,23,0,51.5,0h409.1C489,0,512,23,512,51.5v409.1
	C512,489,489,512,460.5,512z"/>
<path class="st1" d="M201,150.5h-26.8L92.6,360.2h32.7l24.4-63.2h73.8l25,63.2h33.3L201,150.5z M161.3,267.5l26-72.8l26.3,72.8
	H161.3z"/>
<path class="st1" d="M285.4,352.3c0,0,0-15.2,0-31.1c88.2,31.1,100.3-2.3,102.3-11.1s4.5-28.8-46.2-44s-53.8-50-53.1-64.2
	c0-15.9,18.9-80.1,128.8-39.7l-11.1,28.3c-39.4-18.7-81.9-17.2-85.6,10.6c-3.8,27.8,36.6,39.2,48,42.4c11.4,3.3,55.5,19.2,51.5,62.1
	c-2,21.3-11.1,57.3-78.7,57.3C303.8,363.1,285.4,352.3,285.4,352.3z"/>
</svg>
